<?xml version="1.0" standalone="no"?>
<!DOCTYPE svg PUBLIC "-//W3C//DTD SVG 20010904//EN"
 "http://www.w3.org/TR/2001/REC-SVG-20010904/DTD/svg10.dtd">
<svg version="1.0" xmlns="http://www.w3.org/2000/svg"
 width="225.000000pt" height="225.000000pt" viewBox="0 0 225.000000 225.000000"
 preserveAspectRatio="xMidYMid meet">
<metadata>
Created by potrace 1.10, written by Peter Selinger 2001-2011
</metadata>
<g transform="translate(0.000000,225.000000) scale(0.100000,-0.100000)"
fill="#000000" stroke="none">
<path d="M280 1504 c0 -1 77 -109 170 -239 l170 -238 0 -188 0 -189 105 0 105
0 0 190 0 191 101 140 c55 77 131 183 170 235 38 51 69 95 69 96 0 2 -56 2
-124 0 l-124 -3 -94 -144 c-51 -79 -96 -143 -99 -142 -3 1 -49 65 -101 142
l-95 140 -126 5 c-70 3 -127 4 -127 4z m213 -43 c15 -6 58 -58 111 -135 84
-122 107 -143 144 -132 9 3 57 64 104 135 73 107 93 130 118 136 35 8 110 -3
110 -15 0 -5 -59 -90 -131 -191 -71 -100 -137 -195 -145 -210 -10 -21 -14 -68
-14 -182 0 -177 -1 -180 -77 -175 l-48 3 -5 170 -5 170 -34 50 c-19 28 -84
119 -144 203 -63 89 -106 159 -103 168 6 16 80 19 119 5z"/>
<path d="M1472 1495 c-67 -19 -84 -28 -134 -73 -42 -38 -70 -91 -82 -154 l-7
-38 106 0 105 0 0 29 c0 84 131 129 237 81 45 -20 57 -44 51 -95 -5 -47 -47
-69 -139 -74 l-79 -3 0 -77 0 -76 78 -1 c100 -1 148 -20 160 -66 11 -44 5 -73
-24 -102 -28 -27 -63 -36 -141 -36 -95 0 -147 36 -159 110 l-6 35 -101 -1
-102 -1 3 -39 c7 -88 49 -169 110 -209 71 -47 119 -58 247 -59 142 -1 209 16
284 72 80 59 109 128 96 229 -7 61 -44 112 -103 142 l-35 18 37 22 c93 58 103
227 19 303 -10 9 -45 29 -78 45 -52 23 -74 27 -175 30 -79 2 -131 -2 -168 -12z
m310 -45 c30 -11 69 -36 88 -55 31 -32 35 -42 38 -104 l4 -68 -46 -52 c-25
-28 -46 -58 -46 -66 0 -7 21 -31 47 -52 53 -44 73 -84 73 -148 0 -63 -20 -105
-69 -147 -65 -55 -134 -73 -281 -73 -110 1 -131 3 -172 24 -59 29 -113 87
-129 140 -17 58 -9 71 49 71 52 0 65 -9 92 -63 30 -59 119 -94 216 -84 103 11
170 75 161 155 -8 77 -73 122 -173 122 -47 0 -67 17 -62 52 3 20 12 24 69 33
81 14 116 35 136 82 19 47 10 92 -25 126 -38 36 -73 47 -149 47 -80 0 -131
-25 -162 -80 -24 -42 -59 -56 -112 -45 -29 7 -31 10 -25 38 9 43 54 97 104
125 94 53 265 63 374 22z"/>
<path d="M1000 1095 l0 -75 100 0 c55 0 103 -1 106 -2 3 -2 6 32 7 75 l2 77
-107 0 -108 0 0 -75z m170 20 c6 -8 10 -22 8 -32 -3 -15 -14 -18 -68 -18 -54
0 -65 3 -68 18 -7 37 5 47 61 47 36 0 59 -5 67 -15z"/>
</g>
</svg>
